<svg width="100" height="10" xmlns="http://www.w3.org/2000/svg">
 <g>
  <title>Слой 1</title>
  <ellipse fill="#0fffff" cx="29.79592" cy="29.59182" id="svg_1" rx="25.5102" ry="25.30612" stroke="#1a1a1a" fill-opacity="0" stroke-width="3"/>
  <ellipse fill="#0fffff" cx="29.69387" cy="68.36733" id="svg_3" rx="25.40816" ry="26.32653" fill-opacity="0" stroke="#1a1a1a" stroke-width="3"/>
  <path stroke-width="99" d="m62.72727,8.78788c-5.75758,-0.60606 -20.26599,-2.42374 -35.15151,-3.0303c-9.99171,-0.40715 -19.24715,1.02057 -26.66666,3.63636c-4.35301,1.53468 -5.75757,2.12121 -5.45454,2.12121c2.12121,0 10.55104,-1.76233 23.63636,-4.54545c17.20654,-3.65967 37.85221,-6.78133 53.63636,-7.57576c12.71478,-0.63995 22.39595,0.30244 27.27272,0.60606c0.90734,0.05649 0.60551,0.23203 -3.93939,0.30303c-9.70052,0.15153 -25.74151,-0.29776 -45.45454,-1.21212c-19.38256,-0.89903 -39.15175,-1.17826 -56.0606,0.90909c-11.56998,1.42828 -17.57576,3.0303 -17.57576,3.33333c0,3.33333 13.63566,0.03997 29.69697,0.30303c21.81736,0.35733 50.00688,0.65555 74.54545,0c22.13198,-0.59126 38.56789,-1.49294 46.96969,0c2.46031,0.43718 1.81818,0.90909 -3.33334,0.90909c-10.60606,0 -29.69696,-1.51515 -56.96969,-4.54545c-24.54545,-2.72727 -49.08335,-5.23864 -66.0606,-6.66667c-11.51033,-0.96818 -18.07372,-1.8508 -18.18182,-0.60606c-0.2582,2.97331 15.1191,3.50837 37.57575,7.57576c31.47165,5.7002 66.91301,11.05011 96.0606,14.54545c20.26833,2.43055 31.1832,2.11434 30.90909,3.33333c-0.67798,3.01503 -15.42253,-3.21663 -36.0606,-6.66667c-28.74564,-4.80537 -61.17226,-8.95528 -90.60605,-11.21212c-19.97805,-1.53182 -30.22373,-2.11775 -30.30303,-1.21212c-0.45628,5.21118 21.18426,2.42216 45.75757,4.54545c32.6951,2.82508 66.65236,5.3286 91.81817,7.27273c17.26376,1.33367 24.84848,2.12121 24.84848,1.81818c0,-3.33333 -16.0564,-0.07059 -35.75758,-1.21212c-27.87318,-1.61504 -63.03723,-3.71015 -96.36362,-3.0303c-29.71551,0.60619 -45.96546,4.03778 -45.45454,4.84848c5.21038,8.26755 30.89408,3.50075 61.51515,4.24242c34.23372,0.82918 69.10618,1.11949 90.90907,0.30303c12.14674,-0.45486 15.24017,-1.75907 13.0303,-2.42424c-9.73262,-2.9295 -29.07502,-4.09959 -52.72726,-6.36364c-27.25567,-2.60897 -53.02759,-4.39393 -65.75757,-4.54545c-3.3331,-0.03967 -1.51515,0 6.9697,0c18.78788,0 42.41395,0.833 66.66666,1.81818c19.38741,0.78754 35.18426,1.19262 42.72727,2.12121c1.82945,0.22521 1.52223,0.45447 -3.33334,0.60606c-9.99512,0.31204 -23.63636,-1.21212 -36.96969,-2.12121l-9.69697,-0.30303" id="svg_2" stroke="#1a1a1a" fill="none"/>
 </g>

</svg>